# Blender v2.92.0 OBJ File: 'Pine Tree texture.blend'
# www.blender.org
mtllib SM_PineTree.mtl
o pine_tree_Cylinder.004
v 0.994907 11.915987 -3.066301
v 0.110245 15.396454 -0.409540
v 2.666426 11.835343 -1.551703
v 0.295772 15.387504 -0.241430
v 2.775869 11.715477 0.699550
v 0.307919 15.374199 0.008442
v 1.259126 11.626604 2.368706
v 0.139572 15.364335 0.193706
v -0.995316 11.620785 2.477994
v -0.110655 15.363688 0.205836
v -2.666836 11.701428 0.963395
v -0.296181 15.372640 0.037727
v -2.776279 11.821295 -1.287858
v -0.308329 15.385944 -0.212145
v -1.259536 11.910168 -2.957012
v -0.139981 15.395808 -0.397409
v -0.531335 14.190258 -1.558022
v 0.102177 16.545031 -0.046094
v 0.718004 14.117667 -1.462992
v 0.139234 16.542877 -0.043275
v 1.534337 14.070235 -0.510890
v 0.163447 16.541470 -0.015035
v 1.439468 14.075747 0.740556
v 0.160633 16.541634 0.022084
v 0.488969 14.130975 1.558266
v 0.132440 16.543272 0.046338
v -0.760370 14.203566 1.463237
v 0.095384 16.545425 0.043519
v -1.576704 14.250998 0.511135
v 0.071171 16.546831 0.015279
v -1.481834 14.245485 -0.740311
v 0.073985 16.546667 -0.021840
v 1.813276 6.938147 -4.585471
v 0.432830 10.828337 -1.094856
v 4.524623 6.938147 -1.960057
v 1.080264 10.828337 -0.467943
v 4.585388 6.938147 1.813603
v 1.094774 10.828337 0.433157
v 1.959975 6.938147 4.524950
v 0.467860 10.828337 1.080591
v -1.813685 6.938147 4.585715
v -0.433240 10.828337 1.095101
v -4.525033 6.938147 1.960301
v -1.080673 10.828337 0.468187
v -4.585797 6.938147 -1.813358
v -1.095183 10.828337 -0.432913
v -1.960385 6.938147 -4.524705
v -0.468270 10.828337 -1.080346
v 0.113940 8.600502 -4.256311
v -0.193340 12.896527 -1.177374
v 3.116023 8.815231 -3.009630
v 0.637154 12.955930 -0.832493
v 4.359527 8.904175 0.000122
v 0.981156 12.980535 0.000122
v 3.116023 8.815231 3.009875
v 0.637154 12.955930 0.832738
v 0.113940 8.600502 4.256555
v -0.193340 12.896527 1.177618
v -2.888144 8.385775 3.009874
v -1.023834 12.837125 0.832738
v -4.131647 8.296831 0.000122
v -1.367835 12.812520 0.000122
v -2.888144 8.385775 -3.009630
v -1.023834 12.837125 -0.832493
v 1.227825 -0.002786 0.705064
v 0.688285 7.405990 0.057224
v 1.065486 -0.002786 0.941100
v 0.522469 7.423009 0.565388
v -0.688955 -0.000111 1.001724
v -0.375041 7.405990 0.563971
v -1.730994 -0.000136 -1.042998
v -0.586593 7.405990 -0.125713
v -1.564801 -0.000136 -1.284639
v -0.282234 7.405990 -0.610270
v 1.409458 0.013882 -0.413787
v 0.491271 7.468060 -0.289194
v 1.185942 0.062572 0.701754
v 1.047412 0.062572 0.903173
v -0.451205 0.156500 0.682416
v -1.345708 0.238730 -0.814153
v -1.205643 0.238730 -1.017803
v 1.381176 0.129543 -0.372401
v -0.693657 0.327929 -0.194945
v -1.070257 0.000028 -0.243800
v -0.585807 -0.001978 -0.845570
v -0.367718 0.271010 -0.584838
v 1.482664 0.013754 -0.070137
v 0.669230 -0.000025 0.787939
v 0.519123 0.262721 0.586487
v 1.463551 0.120090 -0.071525
v 0.530378 0.405225 -0.144683
v 0.675267 0.030785 -0.269667
v 0.903417 0.021600 0.224766
v 0.691900 0.254269 0.196033
vt 0.423034 0.000336
vt 0.633710 0.000336
vt 0.633710 0.053005
vt 0.423034 0.053005
vt 0.633710 0.105674
vt 0.423034 0.105674
vt 0.633710 0.158344
vt 0.423034 0.158344
vt 0.633710 0.211013
vt 0.423034 0.211013
vt 0.633710 0.263682
vt 0.423034 0.263682
vt 0.633710 0.316351
vt 0.423034 0.316351
vt 0.610560 0.867538
vt 0.665288 0.812810
vt 0.742686 0.812810
vt 0.797414 0.867538
vt 0.797414 0.944936
vt 0.742686 0.999664
vt 0.665288 0.999664
vt 0.610560 0.944936
vt 0.633710 0.369020
vt 0.423034 0.369020
vt 0.633710 0.421689
vt 0.423034 0.421689
vt 0.634383 0.242591
vt 0.634383 0.319988
vt 0.689111 0.374717
vt 0.766508 0.374717
vt 0.821237 0.319988
vt 0.821237 0.242591
vt 0.766508 0.187863
vt 0.689111 0.187863
vt 0.211685 0.422361
vt 0.422361 0.422361
vt 0.422361 0.475031
vt 0.211685 0.475031
vt 0.422361 0.527700
vt 0.211685 0.527700
vt 0.422361 0.580369
vt 0.211685 0.580369
vt 0.422361 0.633038
vt 0.211685 0.633038
vt 0.422361 0.685707
vt 0.211685 0.685707
vt 0.422361 0.738376
vt 0.211685 0.738376
vt 0.798087 0.680012
vt 0.852815 0.625283
vt 0.930212 0.625283
vt 0.984941 0.680012
vt 0.984941 0.757409
vt 0.930212 0.812137
vt 0.852815 0.812137
vt 0.798087 0.757409
vt 0.422361 0.791046
vt 0.211685 0.791046
vt 0.422361 0.843715
vt 0.211685 0.843715
vt 0.610560 0.680012
vt 0.610560 0.757409
vt 0.665288 0.812137
vt 0.742686 0.812137
vt 0.797414 0.757409
vt 0.797414 0.680012
vt 0.742686 0.625283
vt 0.665289 0.625283
vt 0.211685 0.000336
vt 0.422361 0.000336
vt 0.422361 0.053005
vt 0.211685 0.053005
vt 0.422361 0.105674
vt 0.211685 0.105674
vt 0.422361 0.158344
vt 0.211685 0.158344
vt 0.422361 0.211013
vt 0.211685 0.211013
vt 0.422361 0.263682
vt 0.211685 0.263682
vt 0.422361 0.316351
vt 0.211685 0.316351
vt 0.423034 0.867538
vt 0.477762 0.812810
vt 0.555160 0.812810
vt 0.609888 0.867538
vt 0.609888 0.944936
vt 0.555160 0.999664
vt 0.477762 0.999664
vt 0.423034 0.944936
vt 0.422361 0.369020
vt 0.211685 0.369020
vt 0.422361 0.421689
vt 0.211685 0.421689
vt 0.423034 0.680012
vt 0.423034 0.757409
vt 0.477762 0.812137
vt 0.555160 0.812137
vt 0.609888 0.757409
vt 0.609888 0.680012
vt 0.555160 0.625283
vt 0.477762 0.625283
vt 0.000336 0.422361
vt 0.211013 0.422361
vt 0.211013 0.475031
vt 0.000336 0.475031
vt 0.211013 0.527700
vt 0.000336 0.527700
vt 0.211013 0.580369
vt 0.000336 0.580369
vt 0.211013 0.633038
vt 0.000336 0.633038
vt 0.211013 0.685707
vt 0.000336 0.685707
vt 0.211013 0.738376
vt 0.000336 0.738376
vt 0.774685 0.477090
vt 0.829413 0.422362
vt 0.906811 0.422362
vt 0.961539 0.477090
vt 0.961539 0.554487
vt 0.906811 0.609216
vt 0.829413 0.609216
vt 0.774685 0.554487
vt 0.211013 0.791046
vt 0.000336 0.791046
vt 0.211013 0.843715
vt 0.000336 0.843715
vt 0.634383 0.055064
vt 0.634383 0.132462
vt 0.689111 0.187190
vt 0.766508 0.187190
vt 0.821237 0.132462
vt 0.821237 0.055064
vt 0.766508 0.000336
vt 0.689111 0.000336
vt 0.030118 0.000336
vt 0.211013 0.000336
vt 0.211013 0.070562
vt 0.030118 0.070562
vt 0.211013 0.140787
vt 0.030118 0.140787
vt 0.211013 0.211013
vt 0.030118 0.211013
vt 0.211013 0.281238
vt 0.030118 0.281238
vt 0.598187 0.472924
vt 0.598187 0.574049
vt 0.510610 0.624611
vt 0.423034 0.574049
vt 0.423034 0.472924
vt 0.510610 0.422362
vt 0.211013 0.351464
vt 0.030118 0.351464
vt 0.211013 0.421689
vt 0.030118 0.421689
vt 0.598859 0.472924
vt 0.598859 0.574049
vt 0.686436 0.624611
vt 0.774012 0.574049
vt 0.774012 0.472924
vt 0.686436 0.422362
vt 0.002922 0.352627
vt 0.027567 0.352664
vt 0.025479 0.420656
vt 0.004950 0.420713
vt 0.000336 0.281238
vt 0.000336 0.351464
vt 0.003616 0.212740
vt 0.026838 0.212885
vt 0.026838 0.279366
vt 0.003616 0.279511
vt 0.000336 0.140787
vt 0.000336 0.211013
vt 0.000336 0.070562
vt 0.004645 0.002610
vt 0.025809 0.002789
vt 0.025809 0.068109
vt 0.004645 0.068288
vt 0.000336 0.000336
vt 0.000336 0.421689
vn 0.5583 0.5884 -0.5849
vn 0.8299 0.5578 -0.0106
vn 0.6153 0.5260 0.5871
vn 0.0403 0.5115 0.8583
vn -0.5583 0.5229 0.6440
vn -0.8299 0.5535 0.0698
vn -0.0000 0.9986 0.0532
vn -0.6153 0.5853 -0.5280
vn -0.0403 0.5998 -0.7992
vn 0.0000 -0.9986 -0.0532
vn 0.0948 0.5197 -0.8491
vn 0.6753 0.4859 -0.5548
vn 0.8781 0.4742 0.0645
vn 0.5843 0.4912 0.6460
vn -0.0340 0.5272 0.8491
vn -0.6145 0.5609 0.5548
vn 0.0580 0.9983 0.0000
vn -0.8172 0.5727 -0.0645
vn -0.5235 0.5556 -0.6460
vn -0.0580 -0.9983 0.0000
vn 0.5193 0.6654 -0.5363
vn 0.7464 0.6654 -0.0120
vn 0.5363 0.6654 0.5193
vn 0.0120 0.6654 0.7464
vn -0.5193 0.6654 0.5363
vn -0.7464 0.6654 0.0120
vn 0.0000 1.0000 -0.0000
vn -0.5363 0.6654 -0.5193
vn -0.0120 0.6654 -0.7464
vn 0.0000 -1.0000 -0.0000
vn 0.2792 0.5725 -0.7709
vn 0.7296 0.6047 -0.3193
vn 0.7296 0.6047 0.3193
vn 0.2792 0.5725 0.7709
vn -0.3578 0.5269 0.7709
vn -0.8083 0.4947 0.3193
vn -0.0713 0.9975 -0.0000
vn -0.8083 0.4947 -0.3193
vn -0.3578 0.5269 -0.7709
vn 0.0713 -0.9975 0.0000
vn 0.9358 0.0040 0.3525
vn 0.0499 0.0094 0.9987
vn -0.9600 0.0132 0.2796
vn -0.8108 0.0128 -0.5852
vn -0.0230 0.9995 0.0194
vn 0.4156 -0.0122 -0.9095
vn 0.8857 -0.0066 -0.4642
vn 0.0114 -0.9999 -0.0087
vn 0.9440 0.2420 -0.2243
vn 0.3517 0.4495 -0.8212
vn -0.3882 0.8820 -0.2670
vn -0.5406 0.8108 0.2244
vn 0.0487 0.7739 0.6314
vn 0.7199 0.4864 0.4951
vn -0.6205 0.5703 0.5383
vn -0.0018 -1.0000 0.0010
vn 0.3888 0.4113 -0.8244
vn -0.0088 0.9947 -0.1023
vn -0.0097 -0.9994 -0.0318
vn -0.3276 0.4415 0.8353
vn 0.6998 0.5454 -0.4613
vn 0.2652 0.9560 0.1258
vn -0.1746 0.2606 -0.9495
vn -0.0201 -0.9998 -0.0039
vn 0.3916 0.3423 0.8541
vn 0.2803 0.9509 0.1312
usemtl Material.001
s off
f 1/1/1 2/2/1 4/3/1 3/4/1
f 3/4/2 4/3/2 6/5/2 5/6/2
f 5/6/3 6/5/3 8/7/3 7/8/3
f 7/8/4 8/7/4 10/9/4 9/10/4
f 9/10/5 10/9/5 12/11/5 11/12/5
f 11/12/6 12/11/6 14/13/6 13/14/6
f 4/15/7 2/16/7 16/17/7 14/18/7 12/19/7 10/20/7 8/21/7 6/22/7
f 13/14/8 14/13/8 16/23/8 15/24/8
f 15/24/9 16/23/9 2/25/9 1/26/9
f 1/27/10 3/28/10 5/29/10 7/30/10 9/31/10 11/32/10 13/33/10 15/34/10
f 17/35/11 18/36/11 20/37/11 19/38/11
f 19/38/12 20/37/12 22/39/12 21/40/12
f 21/40/13 22/39/13 24/41/13 23/42/13
f 23/42/14 24/41/14 26/43/14 25/44/14
f 25/44/15 26/43/15 28/45/15 27/46/15
f 27/46/16 28/45/16 30/47/16 29/48/16
f 20/49/17 18/50/17 32/51/17 30/52/17 28/53/17 26/54/17 24/55/17 22/56/17
f 29/48/18 30/47/18 32/57/18 31/58/18
f 31/58/19 32/57/19 18/59/19 17/60/19
f 17/61/20 19/62/20 21/63/20 23/64/20 25/65/20 27/66/20 29/67/20 31/68/20
f 33/69/21 34/70/21 36/71/21 35/72/21
f 35/72/22 36/71/22 38/73/22 37/74/22
f 37/74/23 38/73/23 40/75/23 39/76/23
f 39/76/24 40/75/24 42/77/24 41/78/24
f 41/78/25 42/77/25 44/79/25 43/80/25
f 43/80/26 44/79/26 46/81/26 45/82/26
f 36/83/27 34/84/27 48/85/27 46/86/27 44/87/27 42/88/27 40/89/27 38/90/27
f 45/82/28 46/81/28 48/91/28 47/92/28
f 47/92/29 48/91/29 34/93/29 33/94/29
f 33/95/30 35/96/30 37/97/30 39/98/30 41/99/30 43/100/30 45/101/30 47/102/30
f 49/103/31 50/104/31 52/105/31 51/106/31
f 51/106/32 52/105/32 54/107/32 53/108/32
f 53/108/33 54/107/33 56/109/33 55/110/33
f 55/110/34 56/109/34 58/111/34 57/112/34
f 57/112/35 58/111/35 60/113/35 59/114/35
f 59/114/36 60/113/36 62/115/36 61/116/36
f 52/117/37 50/118/37 64/119/37 62/120/37 60/121/37 58/122/37 56/123/37 54/124/37
f 61/116/38 62/115/38 64/125/38 63/126/38
f 63/126/39 64/125/39 50/127/39 49/128/39
f 49/129/40 51/130/40 53/131/40 55/132/40 57/133/40 59/134/40 61/135/40 63/136/40
usemtl Material
f 94/137/41 66/138/41 68/139/41 89/140/41
f 89/140/42 68/139/42 70/141/42 79/142/42
f 79/142/43 70/141/43 72/143/43 83/144/43
f 83/144/44 72/143/44 74/145/44 86/146/44
f 68/147/45 66/148/45 76/149/45 74/150/45 72/151/45 70/152/45
f 86/146/46 74/145/46 76/153/46 91/154/46
f 91/154/47 76/153/47 66/155/47 94/156/47
f 93/157/48 88/158/48 69/159/48 84/160/48 85/161/48 92/162/48
f 75/163/49 82/164/49 90/165/49 87/166/49
f 85/167/50 86/146/50 91/154/50 92/168/50
f 71/169/51 80/170/51 81/171/51 73/172/51
f 69/173/52 79/142/52 83/144/52 84/174/52
f 88/175/53 89/140/53 79/142/53 69/173/53
f 65/176/54 77/177/54 78/178/54 67/179/54
f 80/170/55 71/169/55 84/174/55 83/144/55
f 71/169/56 73/172/56 85/167/56 84/174/56
f 73/172/57 81/171/57 86/146/57 85/167/57
f 81/171/58 80/170/58 83/144/58 86/146/58
f 65/176/59 67/179/59 88/175/59 93/180/59
f 67/179/60 78/178/60 89/140/60 88/175/60
f 77/177/61 65/176/61 93/180/61 94/137/61
f 78/178/62 77/177/62 94/137/62 89/140/62
f 82/164/63 75/163/63 92/168/63 91/154/63
f 75/163/64 87/166/64 93/181/64 92/168/64
f 87/166/65 90/165/65 94/156/65 93/181/65
f 90/165/66 82/164/66 91/154/66 94/156/66
